<mxfile host="app.diagrams.net" modified="2023-07-11T22:35:38.530Z" agent="Mozilla/5.0 (Windows NT 10.0; Win64; x64) AppleWebKit/537.36 (KHTML, like Gecko) Chrome/114.0.0.0 Safari/537.36" etag="_J1QV2jDjWcuiwLLQip-" version="21.5.2" type="device">
  <diagram name="Page-1" id="lN65vukCxbBeaXbN_cIW">
    <mxGraphModel dx="1648" dy="916" grid="1" gridSize="10" guides="1" tooltips="1" connect="1" arrows="1" fold="1" page="1" pageScale="1" pageWidth="827" pageHeight="1169" math="0" shadow="0">
      <root>
        <mxCell id="0" />
        <mxCell id="1" parent="0" />
        <mxCell id="A7xAp5GwduYpbLXyQGw6-59" value="Site web Learn@Home&amp;nbsp;" style="swimlane;whiteSpace=wrap;html=1;" parent="1" vertex="1">
          <mxGeometry x="29" y="110" width="770" height="740" as="geometry" />
        </mxCell>
        <mxCell id="A7xAp5GwduYpbLXyQGw6-111" value="" style="group" parent="1" vertex="1" connectable="0">
          <mxGeometry x="54" y="175" width="720" height="610" as="geometry" />
        </mxCell>
        <mxCell id="A7xAp5GwduYpbLXyQGw6-65" value="Élève" style="shape=umlActor;verticalLabelPosition=bottom;verticalAlign=top;html=1;outlineConnect=0;" parent="A7xAp5GwduYpbLXyQGw6-111" vertex="1">
          <mxGeometry y="220" width="30" height="60" as="geometry" />
        </mxCell>
        <mxCell id="A7xAp5GwduYpbLXyQGw6-66" value="Se connecter" style="ellipse;whiteSpace=wrap;html=1;" parent="A7xAp5GwduYpbLXyQGw6-111" vertex="1">
          <mxGeometry x="240" y="113" width="134" height="50" as="geometry" />
        </mxCell>
        <mxCell id="A7xAp5GwduYpbLXyQGw6-67" value="Discuter (Chat)" style="ellipse;whiteSpace=wrap;html=1;" parent="A7xAp5GwduYpbLXyQGw6-111" vertex="1">
          <mxGeometry x="240" y="225" width="134" height="50" as="geometry" />
        </mxCell>
        <mxCell id="A7xAp5GwduYpbLXyQGw6-68" value="" style="endArrow=classic;html=1;rounded=0;entryX=0;entryY=0.4;entryDx=0;entryDy=0;entryPerimeter=0;" parent="A7xAp5GwduYpbLXyQGw6-111" target="A7xAp5GwduYpbLXyQGw6-66" edge="1">
          <mxGeometry width="50" height="50" relative="1" as="geometry">
            <mxPoint x="30" y="250" as="sourcePoint" />
            <mxPoint x="250" y="275" as="targetPoint" />
          </mxGeometry>
        </mxCell>
        <mxCell id="A7xAp5GwduYpbLXyQGw6-69" value="" style="endArrow=classic;html=1;rounded=0;entryX=0;entryY=0.5;entryDx=0;entryDy=0;" parent="A7xAp5GwduYpbLXyQGw6-111" target="A7xAp5GwduYpbLXyQGw6-67" edge="1">
          <mxGeometry width="50" height="50" relative="1" as="geometry">
            <mxPoint x="30" y="250" as="sourcePoint" />
            <mxPoint x="280" y="350" as="targetPoint" />
          </mxGeometry>
        </mxCell>
        <mxCell id="A7xAp5GwduYpbLXyQGw6-70" value="" style="endArrow=classic;html=1;rounded=0;entryX=0;entryY=0.5;entryDx=0;entryDy=0;" parent="A7xAp5GwduYpbLXyQGw6-111" target="A7xAp5GwduYpbLXyQGw6-108" edge="1">
          <mxGeometry width="50" height="50" relative="1" as="geometry">
            <mxPoint x="30" y="250" as="sourcePoint" />
            <mxPoint x="280" y="350" as="targetPoint" />
          </mxGeometry>
        </mxCell>
        <mxCell id="A7xAp5GwduYpbLXyQGw6-71" value="" style="endArrow=classic;html=1;rounded=0;entryX=0.041;entryY=0.27;entryDx=0;entryDy=0;entryPerimeter=0;" parent="A7xAp5GwduYpbLXyQGw6-111" target="A7xAp5GwduYpbLXyQGw6-107" edge="1">
          <mxGeometry width="50" height="50" relative="1" as="geometry">
            <mxPoint x="30" y="250" as="sourcePoint" />
            <mxPoint x="170" y="400" as="targetPoint" />
          </mxGeometry>
        </mxCell>
        <mxCell id="A7xAp5GwduYpbLXyQGw6-72" value="S&#39;authentifier" style="ellipse;whiteSpace=wrap;html=1;" parent="A7xAp5GwduYpbLXyQGw6-111" vertex="1">
          <mxGeometry x="527" y="510" width="120" height="50" as="geometry" />
        </mxCell>
        <mxCell id="A7xAp5GwduYpbLXyQGw6-73" value="" style="endArrow=classic;html=1;rounded=0;exitX=0.952;exitY=0.741;exitDx=0;exitDy=0;entryX=0.102;entryY=0.176;entryDx=0;entryDy=0;entryPerimeter=0;dashed=1;fillColor=#f8cecc;strokeColor=#b85450;exitPerimeter=0;" parent="A7xAp5GwduYpbLXyQGw6-111" source="A7xAp5GwduYpbLXyQGw6-67" target="A7xAp5GwduYpbLXyQGw6-72" edge="1">
          <mxGeometry width="50" height="50" relative="1" as="geometry">
            <mxPoint x="400" y="280" as="sourcePoint" />
            <mxPoint x="511.4400000000005" y="367.70000000000005" as="targetPoint" />
          </mxGeometry>
        </mxCell>
        <mxCell id="A7xAp5GwduYpbLXyQGw6-74" value="&lt;font style=&quot;font-size: 10px;&quot;&gt;&amp;lt;&amp;lt;include&amp;gt;&amp;gt;&lt;/font&gt;" style="edgeLabel;html=1;align=center;verticalAlign=middle;resizable=0;points=[];fontSize=7;" parent="A7xAp5GwduYpbLXyQGw6-73" vertex="1" connectable="0">
          <mxGeometry x="-0.1484" relative="1" as="geometry">
            <mxPoint as="offset" />
          </mxGeometry>
        </mxCell>
        <mxCell id="A7xAp5GwduYpbLXyQGw6-75" value="" style="endArrow=classic;html=1;rounded=0;exitX=0.932;exitY=0.774;exitDx=0;exitDy=0;entryX=0.037;entryY=0.285;entryDx=0;entryDy=0;dashed=1;entryPerimeter=0;fillColor=#f8cecc;strokeColor=#b85450;exitPerimeter=0;" parent="A7xAp5GwduYpbLXyQGw6-111" source="A7xAp5GwduYpbLXyQGw6-108" target="A7xAp5GwduYpbLXyQGw6-72" edge="1">
          <mxGeometry width="50" height="50" relative="1" as="geometry">
            <mxPoint x="400" y="280" as="sourcePoint" />
            <mxPoint x="510" y="375" as="targetPoint" />
          </mxGeometry>
        </mxCell>
        <mxCell id="A7xAp5GwduYpbLXyQGw6-76" value="&lt;font style=&quot;font-size: 10px;&quot;&gt;&amp;lt;&amp;lt;include&amp;gt;&amp;gt;&lt;/font&gt;" style="edgeLabel;html=1;align=center;verticalAlign=middle;resizable=0;points=[];fontSize=7;" parent="A7xAp5GwduYpbLXyQGw6-75" vertex="1" connectable="0">
          <mxGeometry relative="1" as="geometry">
            <mxPoint as="offset" />
          </mxGeometry>
        </mxCell>
        <mxCell id="A7xAp5GwduYpbLXyQGw6-77" value="" style="endArrow=classic;html=1;rounded=0;exitX=0.962;exitY=0.719;exitDx=0;exitDy=0;dashed=1;fillColor=#f8cecc;strokeColor=#b85450;entryX=-0.006;entryY=0.44;entryDx=0;entryDy=0;entryPerimeter=0;exitPerimeter=0;" parent="A7xAp5GwduYpbLXyQGw6-111" source="A7xAp5GwduYpbLXyQGw6-107" target="A7xAp5GwduYpbLXyQGw6-72" edge="1">
          <mxGeometry width="50" height="50" relative="1" as="geometry">
            <mxPoint x="400" y="280" as="sourcePoint" />
            <mxPoint x="520" y="540" as="targetPoint" />
          </mxGeometry>
        </mxCell>
        <mxCell id="A7xAp5GwduYpbLXyQGw6-78" value="&lt;font style=&quot;font-size: 10px;&quot;&gt;&amp;lt;&amp;lt;include&amp;gt;&amp;gt;&lt;/font&gt;" style="edgeLabel;html=1;align=center;verticalAlign=middle;resizable=0;points=[];" parent="A7xAp5GwduYpbLXyQGw6-77" vertex="1" connectable="0">
          <mxGeometry x="-0.1031" relative="1" as="geometry">
            <mxPoint as="offset" />
          </mxGeometry>
        </mxCell>
        <mxCell id="A7xAp5GwduYpbLXyQGw6-79" value="Tuteur" style="shape=umlActor;verticalLabelPosition=bottom;verticalAlign=top;html=1;outlineConnect=0;" parent="A7xAp5GwduYpbLXyQGw6-111" vertex="1">
          <mxGeometry y="490" width="30" height="60" as="geometry" />
        </mxCell>
        <mxCell id="A7xAp5GwduYpbLXyQGw6-80" value="" style="endArrow=classic;html=1;rounded=0;entryX=0;entryY=0.6;entryDx=0;entryDy=0;entryPerimeter=0;" parent="A7xAp5GwduYpbLXyQGw6-111" target="A7xAp5GwduYpbLXyQGw6-66" edge="1">
          <mxGeometry width="50" height="50" relative="1" as="geometry">
            <mxPoint x="40" y="520" as="sourcePoint" />
            <mxPoint x="380" y="360" as="targetPoint" />
          </mxGeometry>
        </mxCell>
        <mxCell id="A7xAp5GwduYpbLXyQGw6-81" value="" style="endArrow=classic;html=1;rounded=0;entryX=-0.006;entryY=0.659;entryDx=0;entryDy=0;entryPerimeter=0;" parent="A7xAp5GwduYpbLXyQGw6-111" target="A7xAp5GwduYpbLXyQGw6-67" edge="1">
          <mxGeometry width="50" height="50" relative="1" as="geometry">
            <mxPoint x="40" y="520" as="sourcePoint" />
            <mxPoint x="350" y="430" as="targetPoint" />
          </mxGeometry>
        </mxCell>
        <mxCell id="A7xAp5GwduYpbLXyQGw6-82" value="" style="endArrow=classic;html=1;rounded=0;entryX=-0.019;entryY=0.601;entryDx=0;entryDy=0;entryPerimeter=0;" parent="A7xAp5GwduYpbLXyQGw6-111" target="A7xAp5GwduYpbLXyQGw6-108" edge="1">
          <mxGeometry width="50" height="50" relative="1" as="geometry">
            <mxPoint x="40" y="520" as="sourcePoint" />
            <mxPoint x="330" y="390" as="targetPoint" />
          </mxGeometry>
        </mxCell>
        <mxCell id="A7xAp5GwduYpbLXyQGw6-83" value="" style="endArrow=classic;html=1;rounded=0;entryX=-0.007;entryY=0.512;entryDx=0;entryDy=0;entryPerimeter=0;" parent="A7xAp5GwduYpbLXyQGw6-111" target="A7xAp5GwduYpbLXyQGw6-107" edge="1">
          <mxGeometry width="50" height="50" relative="1" as="geometry">
            <mxPoint x="40" y="520" as="sourcePoint" />
            <mxPoint x="230" y="560" as="targetPoint" />
          </mxGeometry>
        </mxCell>
        <mxCell id="A7xAp5GwduYpbLXyQGw6-84" value="" style="endArrow=classic;html=1;rounded=0;exitX=1;exitY=0.5;exitDx=0;exitDy=0;dashed=1;entryX=0.117;entryY=0.843;entryDx=0;entryDy=0;entryPerimeter=0;fillColor=#f8cecc;strokeColor=#b85450;" parent="A7xAp5GwduYpbLXyQGw6-111" source="A7xAp5GwduYpbLXyQGw6-110" target="A7xAp5GwduYpbLXyQGw6-72" edge="1">
          <mxGeometry width="50" height="50" relative="1" as="geometry">
            <mxPoint x="394" y="465" as="sourcePoint" />
            <mxPoint x="523" y="393" as="targetPoint" />
          </mxGeometry>
        </mxCell>
        <mxCell id="A7xAp5GwduYpbLXyQGw6-85" value="&lt;font style=&quot;font-size: 10px;&quot;&gt;&amp;lt;&amp;lt;include&amp;gt;&amp;gt;&lt;/font&gt;" style="edgeLabel;html=1;align=center;verticalAlign=middle;resizable=0;points=[];" parent="A7xAp5GwduYpbLXyQGw6-84" vertex="1" connectable="0">
          <mxGeometry x="-0.1031" relative="1" as="geometry">
            <mxPoint as="offset" />
          </mxGeometry>
        </mxCell>
        <mxCell id="A7xAp5GwduYpbLXyQGw6-86" value="" style="endArrow=classic;html=1;rounded=0;entryX=0.026;entryY=0.237;entryDx=0;entryDy=0;entryPerimeter=0;" parent="A7xAp5GwduYpbLXyQGw6-111" target="A7xAp5GwduYpbLXyQGw6-110" edge="1">
          <mxGeometry width="50" height="50" relative="1" as="geometry">
            <mxPoint x="30" y="250" as="sourcePoint" />
            <mxPoint x="265" y="544" as="targetPoint" />
          </mxGeometry>
        </mxCell>
        <mxCell id="A7xAp5GwduYpbLXyQGw6-87" value="" style="endArrow=classic;html=1;rounded=0;entryX=0;entryY=0.4;entryDx=0;entryDy=0;entryPerimeter=0;" parent="A7xAp5GwduYpbLXyQGw6-111" target="A7xAp5GwduYpbLXyQGw6-110" edge="1">
          <mxGeometry width="50" height="50" relative="1" as="geometry">
            <mxPoint x="40" y="520" as="sourcePoint" />
            <mxPoint x="259" y="556" as="targetPoint" />
          </mxGeometry>
        </mxCell>
        <mxCell id="A7xAp5GwduYpbLXyQGw6-88" value="Créer un compte" style="ellipse;whiteSpace=wrap;html=1;fontSize=9;" parent="A7xAp5GwduYpbLXyQGw6-111" vertex="1">
          <mxGeometry x="470" width="140" height="45" as="geometry" />
        </mxCell>
        <mxCell id="A7xAp5GwduYpbLXyQGw6-89" value="Récupérer un compte" style="ellipse;whiteSpace=wrap;html=1;fontSize=9;" parent="A7xAp5GwduYpbLXyQGw6-111" vertex="1">
          <mxGeometry x="470" y="53" width="140" height="45" as="geometry" />
        </mxCell>
        <mxCell id="A7xAp5GwduYpbLXyQGw6-90" value="" style="endArrow=classic;html=1;rounded=0;exitX=0;exitY=0.75;exitDx=0;exitDy=0;exitPerimeter=0;entryX=0.931;entryY=0.213;entryDx=0;entryDy=0;entryPerimeter=0;dashed=1;fillColor=#d5e8d4;strokeColor=#82b366;" parent="A7xAp5GwduYpbLXyQGw6-111" source="A7xAp5GwduYpbLXyQGw6-88" target="A7xAp5GwduYpbLXyQGw6-66" edge="1">
          <mxGeometry width="50" height="50" relative="1" as="geometry">
            <mxPoint x="120" y="380" as="sourcePoint" />
            <mxPoint x="370" y="170" as="targetPoint" />
          </mxGeometry>
        </mxCell>
        <mxCell id="A7xAp5GwduYpbLXyQGw6-91" value="&lt;font style=&quot;font-size: 10px;&quot;&gt;&amp;lt;&amp;lt;extend&amp;gt;&amp;gt;&lt;/font&gt;" style="edgeLabel;html=1;align=center;verticalAlign=middle;resizable=0;points=[];" parent="A7xAp5GwduYpbLXyQGw6-90" vertex="1" connectable="0">
          <mxGeometry x="-0.1035" relative="1" as="geometry">
            <mxPoint as="offset" />
          </mxGeometry>
        </mxCell>
        <mxCell id="A7xAp5GwduYpbLXyQGw6-92" value="" style="endArrow=classic;html=1;rounded=0;exitX=0.078;exitY=0.791;exitDx=0;exitDy=0;entryX=0.999;entryY=0.401;entryDx=0;entryDy=0;entryPerimeter=0;dashed=1;fillColor=#d5e8d4;strokeColor=#82b366;exitPerimeter=0;" parent="A7xAp5GwduYpbLXyQGw6-111" source="A7xAp5GwduYpbLXyQGw6-89" target="A7xAp5GwduYpbLXyQGw6-66" edge="1">
          <mxGeometry width="50" height="50" relative="1" as="geometry">
            <mxPoint x="120" y="380" as="sourcePoint" />
            <mxPoint x="390" y="180" as="targetPoint" />
          </mxGeometry>
        </mxCell>
        <mxCell id="A7xAp5GwduYpbLXyQGw6-93" value="&amp;lt;&amp;lt;extend&amp;gt;&amp;gt;" style="edgeLabel;html=1;align=center;verticalAlign=middle;resizable=0;points=[];fontSize=10;" parent="A7xAp5GwduYpbLXyQGw6-92" vertex="1" connectable="0">
          <mxGeometry x="-0.2573" relative="1" as="geometry">
            <mxPoint as="offset" />
          </mxGeometry>
        </mxCell>
        <mxCell id="A7xAp5GwduYpbLXyQGw6-94" value="Consulter l’historique des conversations" style="ellipse;whiteSpace=wrap;html=1;fontSize=9;" parent="A7xAp5GwduYpbLXyQGw6-111" vertex="1">
          <mxGeometry x="490" y="150" width="140" height="45" as="geometry" />
        </mxCell>
        <mxCell id="A7xAp5GwduYpbLXyQGw6-95" value="" style="endArrow=classic;html=1;rounded=0;exitX=0;exitY=0.5;exitDx=0;exitDy=0;entryX=0.975;entryY=0.285;entryDx=0;entryDy=0;entryPerimeter=0;dashed=1;fillColor=#d5e8d4;strokeColor=#82b366;" parent="A7xAp5GwduYpbLXyQGw6-111" source="A7xAp5GwduYpbLXyQGw6-94" target="A7xAp5GwduYpbLXyQGw6-67" edge="1">
          <mxGeometry width="50" height="50" relative="1" as="geometry">
            <mxPoint x="490" y="160" as="sourcePoint" />
            <mxPoint x="384" y="190" as="targetPoint" />
          </mxGeometry>
        </mxCell>
        <mxCell id="A7xAp5GwduYpbLXyQGw6-96" value="&amp;lt;&amp;lt;extend&amp;gt;&amp;gt;" style="edgeLabel;html=1;align=center;verticalAlign=middle;resizable=0;points=[];fontSize=10;" parent="A7xAp5GwduYpbLXyQGw6-95" vertex="1" connectable="0">
          <mxGeometry x="-0.2573" relative="1" as="geometry">
            <mxPoint as="offset" />
          </mxGeometry>
        </mxCell>
        <mxCell id="A7xAp5GwduYpbLXyQGw6-97" value="Ajouter/Supprimer un contact" style="ellipse;whiteSpace=wrap;html=1;fontSize=9;" parent="A7xAp5GwduYpbLXyQGw6-111" vertex="1">
          <mxGeometry x="490" y="203" width="140" height="45" as="geometry" />
        </mxCell>
        <mxCell id="A7xAp5GwduYpbLXyQGw6-98" value="" style="endArrow=classic;html=1;rounded=0;exitX=0;exitY=0.5;exitDx=0;exitDy=0;entryX=1.002;entryY=0.444;entryDx=0;entryDy=0;entryPerimeter=0;dashed=1;fillColor=#d5e8d4;strokeColor=#82b366;" parent="A7xAp5GwduYpbLXyQGw6-111" source="A7xAp5GwduYpbLXyQGw6-97" target="A7xAp5GwduYpbLXyQGw6-67" edge="1">
          <mxGeometry width="50" height="50" relative="1" as="geometry">
            <mxPoint x="490" y="222" as="sourcePoint" />
            <mxPoint x="381" y="274" as="targetPoint" />
          </mxGeometry>
        </mxCell>
        <mxCell id="A7xAp5GwduYpbLXyQGw6-99" value="&amp;lt;&amp;lt;extend&amp;gt;&amp;gt;" style="edgeLabel;html=1;align=center;verticalAlign=middle;resizable=0;points=[];fontSize=10;" parent="A7xAp5GwduYpbLXyQGw6-98" vertex="1" connectable="0">
          <mxGeometry x="-0.2573" relative="1" as="geometry">
            <mxPoint as="offset" />
          </mxGeometry>
        </mxCell>
        <mxCell id="A7xAp5GwduYpbLXyQGw6-100" value="Ajouter un événement" style="ellipse;whiteSpace=wrap;html=1;fontSize=9;" parent="A7xAp5GwduYpbLXyQGw6-111" vertex="1">
          <mxGeometry x="560" y="291" width="140" height="45" as="geometry" />
        </mxCell>
        <mxCell id="A7xAp5GwduYpbLXyQGw6-101" value="" style="endArrow=classic;html=1;rounded=0;exitX=0.006;exitY=0.616;exitDx=0;exitDy=0;entryX=0.98;entryY=0.334;entryDx=0;entryDy=0;entryPerimeter=0;dashed=1;fillColor=#d5e8d4;strokeColor=#82b366;exitPerimeter=0;" parent="A7xAp5GwduYpbLXyQGw6-111" source="A7xAp5GwduYpbLXyQGw6-100" target="A7xAp5GwduYpbLXyQGw6-108" edge="1">
          <mxGeometry width="50" height="50" relative="1" as="geometry">
            <mxPoint x="500" y="236" as="sourcePoint" />
            <mxPoint x="384" y="264" as="targetPoint" />
          </mxGeometry>
        </mxCell>
        <mxCell id="A7xAp5GwduYpbLXyQGw6-102" value="&amp;lt;&amp;lt;extend&amp;gt;&amp;gt;" style="edgeLabel;html=1;align=center;verticalAlign=middle;resizable=0;points=[];fontSize=10;" parent="A7xAp5GwduYpbLXyQGw6-101" vertex="1" connectable="0">
          <mxGeometry x="-0.2573" relative="1" as="geometry">
            <mxPoint as="offset" />
          </mxGeometry>
        </mxCell>
        <mxCell id="A7xAp5GwduYpbLXyQGw6-104" value="Ajouter une tâche pour un autre utilisateur" style="ellipse;whiteSpace=wrap;html=1;fontSize=9;" parent="A7xAp5GwduYpbLXyQGw6-111" vertex="1">
          <mxGeometry x="570" y="392" width="150" height="45" as="geometry" />
        </mxCell>
        <mxCell id="A7xAp5GwduYpbLXyQGw6-105" value="" style="endArrow=classic;html=1;rounded=0;exitX=0;exitY=0.565;exitDx=0;exitDy=0;entryX=1.007;entryY=0.385;entryDx=0;entryDy=0;entryPerimeter=0;dashed=1;fillColor=#d5e8d4;strokeColor=#82b366;exitPerimeter=0;" parent="A7xAp5GwduYpbLXyQGw6-111" source="A7xAp5GwduYpbLXyQGw6-104" target="A7xAp5GwduYpbLXyQGw6-107" edge="1">
          <mxGeometry width="50" height="50" relative="1" as="geometry">
            <mxPoint x="570" y="343" as="sourcePoint" />
            <mxPoint x="381" y="377" as="targetPoint" />
          </mxGeometry>
        </mxCell>
        <mxCell id="A7xAp5GwduYpbLXyQGw6-106" value="&amp;lt;&amp;lt;extend&amp;gt;&amp;gt;" style="edgeLabel;html=1;align=center;verticalAlign=middle;resizable=0;points=[];fontSize=10;" parent="A7xAp5GwduYpbLXyQGw6-105" vertex="1" connectable="0">
          <mxGeometry x="-0.2573" relative="1" as="geometry">
            <mxPoint x="16" y="-4" as="offset" />
          </mxGeometry>
        </mxCell>
        <mxCell id="A7xAp5GwduYpbLXyQGw6-107" value="Gérer les tâches" style="ellipse;whiteSpace=wrap;html=1;" parent="A7xAp5GwduYpbLXyQGw6-111" vertex="1">
          <mxGeometry x="240" y="448" width="134" height="50" as="geometry" />
        </mxCell>
        <mxCell id="A7xAp5GwduYpbLXyQGw6-108" value="Consulter calendrier" style="ellipse;whiteSpace=wrap;html=1;" parent="A7xAp5GwduYpbLXyQGw6-111" vertex="1">
          <mxGeometry x="240" y="337" width="134" height="50" as="geometry" />
        </mxCell>
        <mxCell id="A7xAp5GwduYpbLXyQGw6-109" value="&lt;font style=&quot;font-size: 7px;&quot;&gt;&lt;span style=&quot;font-size: 7px;&quot;&gt;Condition :&amp;nbsp;&lt;/span&gt;&lt;br style=&quot;font-size: 7px;&quot;&gt;&lt;font style=&quot;font-size: 7px;&quot;&gt;utilisateur == Tuteu&lt;/font&gt;&lt;/font&gt;&lt;font style=&quot;font-size: 7px;&quot;&gt;r&lt;/font&gt;" style="shape=document;whiteSpace=wrap;html=1;boundedLbl=1;fontSize=7;" parent="A7xAp5GwduYpbLXyQGw6-111" vertex="1">
          <mxGeometry x="479" y="386" width="70" height="40" as="geometry" />
        </mxCell>
        <mxCell id="A7xAp5GwduYpbLXyQGw6-110" value="Consulter le dashboard" style="ellipse;whiteSpace=wrap;html=1;" parent="A7xAp5GwduYpbLXyQGw6-111" vertex="1">
          <mxGeometry x="240" y="560" width="134" height="50" as="geometry" />
        </mxCell>
      </root>
    </mxGraphModel>
  </diagram>
</mxfile>
